<svg xmlns="http://www.w3.org/2000/svg" viewBox="0 0 1080 1080">
  <path d="m956.74 877.37-58.66-108.65a21.77 21.77 0 0 1 1.53-23.12c32.8-45.74 51.52-98.35 51.71-154.39 0-3.32-5-45.38-5-54.08 0-.88-6.15-42.64-7.63-48l-.14-.63-54-304a12.77 12.77 0 0 1-.25-2.12c-2.36-35.71-28.25-51.28-52.76-32a26.19 26.19 0 0 0-2.49 2.33L724.84 264.5a22.93 22.93 0 0 1-11.68 6.75c-25.49 6-101.11 10.67-179.74 12.75-78.62-2.59-154.2-7.71-179.65-13.91a23 23 0 0 1-11.64-6.83L238.71 150.79a27.32 27.32 0 0 0-2.47-2.34c-24.39-19.45-50.38-4-53 31.65a12.92 12.92 0 0 1-.26 2.12l-66 357.4c-.23 1.2-.34 45.28-.35 48.89-.59 176.9 184 321 413 323.07h3.2c79.8.26 154.43-16.79 217.89-46.53l160.7 71.12c36.4 16.15 65.41-21.58 45.32-58.8ZM332.56 615.6c-25.07-.08-45.33-20-45.25-44.49s20.47-44.28 45.54-44.2 45.33 20 45.25 44.49-20.48 44.28-45.54 44.2Zm251.52-46.34-33.68 37.6a13.37 13.37 0 0 1-19.88-.06L497.1 569c-7.38-8.35-1.29-21.3 10-21.27l67.11.22c11.3.05 17.31 13.05 9.87 21.31Zm164.23 47.68c-25.07-.08-45.33-20-45.25-44.48s20.47-44.28 45.54-44.2 45.33 20 45.25 44.49-20.48 44.25-45.54 44.19Z" style="fill:#2e2e31"/>
</svg>
